{"title":"Waste.Land.2011.720p.Bluray.x264-OPS","uid":6552639,"size":5024453349,"categoryP":"video","categoryS":"hd___movies","magnet":"?xt=urn:btih:54dec99821cc7c7c2fa5aae9c5c6c38c2286cebc&amp;dn=Waste.Land.2011.720p.Bluray.x264-OPS&amp;tr=udp%3A%2F%2Ftracker.openbittorrent.com%3A80&amp;tr=udp%3A%2F%2Fopen.demonii.com%3A1337&amp;tr=udp%3A%2F%2Ftracker.coppersurfer.tk%3A6969&amp;tr=udp%3A%2F%2Fexodus.desync.com%3A6969","seeders":8,"leechers":0,"uploader":"mfccorrea","files":1,"time":1311168073,"description":"Brazilian artist Vik Muniz combines visual beauty with social awareness. Waste Land--a documentary about Muniz collaborating with the trash pickers in a staggeringly huge landfill--achieves the same fusion. Muniz, a remarkably upbeat and earnest fellow, is almost just an excuse for the movie to investigate the lives of the trash pickers, who are amazing people living on the fringes of a highly polarized society. The documentarians capture startlingly open and complex interviews with a handful of men and women striving to maintain some hope and personal dignity in some of the worst circumstances imaginable. Their vibrance and vitality will make you want to live your own life more fully. The tricky ethical issues around the entire project get a substantial discussion; Muniz is aware of the potential for exploitation and capsizing these delicately balanced lives, but proceeds with fervor. The glimpses into his artistic process (and his ability to genuinely collaborate with his subjects) provide a striking mirror to the collective effort of the trash pickers as they fight to form a political association to better their existence. Waste Land will truly make you examine your own life and may well inspire you to live better. --Bret Fetzer\n\n\n   General\n      Complete name :Waste.Land.2011.720p.Bluray.x264-OPS.mkv\n      Format : Matroska\n      File size : 4.68 GiB\n      Duration : 1h 39mn\n      Overall bit rate : 6 728 Kbps\n      Encoded date : UTC 2011-07-15 15:31:11\n      Writing application : mkvmerge v2.8.0 ('The Tree') built on May  9 2009 18:02:06\n      Writing library : libebml v0.7.7 + libmatroska v0.8.1\n   Video #1\n      ID : 1\n      Format : AVC\n      Format/Info : Advanced Video Codec\n      Format profile : &lt;a class=&quot;__cf_email__&quot; href=&quot;/cdn-cgi/l/email-protection&quot; data-cfemail=&quot;024a6b656a424e312c33&quot;&gt;[email&amp;#160;protected]&lt;/a&gt;&lt;script cf-hash='f9e31' type=&quot;text/javascript&quot;&gt;\n/* &lt;![CDATA[ */!function(){try{var t=&quot;currentScript&quot;in document?document.currentScript:function(){for(var t=document.getElementsByTagName(&quot;script&quot;),e=t.length;e--;)if(t[e].getAttribute(&quot;cf-hash&quot;))return t[e]}();if(t&amp;&amp;t.previousSibling){var e,r,n,i,c=t.previousSibling,a=c.getAttribute(&quot;data-cfemail&quot;);if(a){for(e=&quot;&quot;,r=parseInt(a.substr(0,2),16),n=2;a.length-n;n+=2)i=parseInt(a.substr(n,2),16)^r,e+=String.fromCharCode(i);e=document.createTextNode(e),c.parentNode.replaceChild(e,c)}}}catch(u){}}();/* ]]&gt; */&lt;/script&gt;\n      Format settings, CABAC : Yes\n      Format settings, ReFrames : 4 frames\n      Muxing mode : Container profile=&lt;a class=&quot;__cf_email__&quot; href=&quot;/cdn-cgi/l/email-protection&quot; data-cfemail=&quot;ce9ba0a5a0a1b9a08efde0ff&quot;&gt;[email&amp;#160;protected]&lt;/a&gt;&lt;script cf-hash='f9e31' type=&quot;text/javascript&quot;&gt;\n/* &lt;![CDATA[ */!function(){try{var t=&quot;currentScript&quot;in document?document.currentScript:function(){for(var t=document.getElementsByTagName(&quot;script&quot;),e=t.length;e--;)if(t[e].getAttribute(&quot;cf-hash&quot;))return t[e]}();if(t&amp;&amp;t.previousSibling){var e,r,n,i,c=t.previousSibling,a=c.getAttribute(&quot;data-cfemail&quot;);if(a){for(e=&quot;&quot;,r=parseInt(a.substr(0,2),16),n=2;a.length-n;n+=2)i=parseInt(a.substr(n,2),16)^r,e+=String.fromCharCode(i);e=document.createTextNode(e),c.parentNode.replaceChild(e,c)}}}catch(u){}}();/* ]]&gt; */&lt;/script&gt;\n      Codec ID : V_MPEG4/ISO/AVC\n      Duration : 1h 39mn\n      Bit rate : 5 084 Kbps\n      Nominal bit rate : 5 368 Kbps\n      Width : 1 280 pixels\n      Height : 720 pixels\n      Display aspect ratio : 16:9\n      Frame rate : 23.976 fps\n      Resolution : 24 bits\n      Colorimetry : 4:2:0\n      Scan type : Progressive\n      Bits/(Pixel*Frame) : 0.230\n      Stream size : 3.53 GiB (75%)\n      Writing library : x264 core 105 r1724 b02df7b     \n   Audio #2\n      ID : 2\n      Format : DTS\n      Format/Info : Digital Theater Systems\n      Codec ID : A_DTS\n      Duration : 1h 39mn\n      Bit rate mode : Constant\n      Bit rate : 1 510 Kbps\n      Channel(s) : 6 channels\n      Channel positions : Front: L C R, Surround: L R, LFE\n      Sampling rate : 48.0 KHz\n      Resolution : 24 bits\n      Stream size : 1.05 GiB (22%)\n      Language : Portuguese\n   Text #3\n      ID : 3\n      Format : VobSub\n      Codec ID : S_VOBSUB\n      Codec ID/Info : The same subtitle format used on DVDs\n      Language : Portuguese\n   Text #4\n      ID : 4\n      Format : VobSub\n      Codec ID : S_VOBSUB\n      Codec ID/Info : The same subtitle format used on DVDs\n      Language : Portuguese\n   Text #5\n      ID : 5\n      Format : VobSub\n      Codec ID : S_VOBSUB\n      Codec ID/Info : The same subtitle format used on DVDs\n      Language : English\n &lt;a href=&quot;\nhttp://www.imdb.com/title/tt1268204/&quot; rel=&quot;nofollow&quot; target=&quot;_NEW&quot;&gt;\nhttp://www.imdb.com/title/tt1268204/&lt;/a&gt;\n\nPortuguese and English audio; Portuguese and English subtitles (muxed in mkv)","torrent":{"xt":"urn:btih:54dec99821cc7c7c2fa5aae9c5c6c38c2286cebc","amp;dn":"Waste.Land.2011.720p.Bluray.x264-OPS","amp;tr":["udp%3A%2F%2Ftracker.openbittorrent.com%3A80","udp%3A%2F%2Fopen.demonii.com%3A1337","udp%3A%2F%2Ftracker.coppersurfer.tk%3A6969","udp%3A%2F%2Fexodus.desync.com%3A6969"],"infoHash":"54dec99821cc7c7c2fa5aae9c5c6c38c2286cebc","infoHashBuffer":{"type":"Buffer","data":[84,222,201,152,33,204,124,124,47,165,170,233,197,198,195,140,34,134,206,188]},"announce":[],"urlList":[]}}